Format : AVI
Format/Info : Audio Video Interleave
File size : 736 MiB
Duration : 1h 26mn
Overall bit rate : 1 190 Kbps
Writing library : VirtualDub build 32842/release

Video
ID : 0
Format : MPEG-4 Visual
Format profile : Advanced Simple@L5
Format settings, BVOP : 2
Format settings, QPel : No
Format settings, GMC : No warppoints
Format settings, Matrix : Default (H.263)
Muxing mode : Packed bitstream
Codec ID : XVID
Codec ID/Hint : XviD
Duration : 1h 26mn
Bit rate : 1 048 Kbps
Width : 584 pixels
Height : 400 pixels
Frame rate : 29.970 fps
Color space : YUV
Chroma subsampling : 4:2:0
Bit depth : 8 bits
Scan type : Progressive
Compression mode : Lossy
Bits/(Pixel*Frame) : 0.150
Stream size : 649 MiB (88%)
Writing library : XviD 64

Audio
ID : 1
Format : MPEG Audio
Format version : Version 1
Format profile : Layer 3
Mode : Joint stereo
Mode extension : MS Stereo
Codec ID : 55
Codec ID/Hint : MP3
Duration : 1h 26mn
Bit rate mode : Constant
Bit rate : 128 Kbps
Channel(s) : 2 channels
Sampling rate : 44.1 KHz
Compression mode : Lossy
Stream size : 79.2 MiB (11%)
Alignment : Aligned on interleaves
Interleave, duration : 26 ms (0.78 video frame)
Interleave, preload duration : 522 ms
Writing library : LAME3.98.2




 
http://www.imdb.com/title/tt0831280/







Madison (Sarah Roemer), a phone sex operator living in New Orleans, is doing everything she can to lead a normal life. When a series of events leaves Madison suicidal and desperate, she locks herself away in her apartment for 30 days. Using a video camera to document herself like a visual journal, Madison vows that if she does not have the answer to her questions and feel more at peace with her life, she will kill herself on the 30th day. Will she be able to piece her life together? Are the people in her life real at all or are they merely figments of her disordered and fragmented mind?








 
http://www.leetleech.org/images/78049292716471559210.png






Source Used

IFLiX ............Thanks


Cropped,resized slightly missed a touch of the black border at top never mind lol ......RGB colour change slight smoother slight contrast

Enjoy

Retail be soon btw


Kept the file size down too dont believe these PPVs need be double in size

Greetz to IMAGiNE,Flawl3ss,DiLLoN,BDK,NOiR,TOXiC,THC,Ez,Rx,Boobyblue,TaRiQ786,LKRG,
